<?xml version="1.0" encoding="utf-8"?>
<!-- Generator: Adobe Illustrator 19.1.0, SVG Export Plug-In . SVG Version: 6.00 Build 0)  -->
<!DOCTYPE svg PUBLIC "-//W3C//DTD SVG 1.1//EN" "http://www.w3.org/Graphics/SVG/1.1/DTD/svg11.dtd">
<svg version="1.1" id="Layer_1" xmlns="http://www.w3.org/2000/svg" xmlns:xlink="http://www.w3.org/1999/xlink" x="0px" y="0px"
	 viewBox="0 0 150 150" style="enable-background:new 0 0 150 150;" xml:space="preserve">
<style type="text/css">
	.st0{fill:url(#SVGID_1_);}
	.st1{opacity:0.2;}
	.st2{fill:#0E1519;}
	.st3{fill:#558ABF;}
</style>
<g>
	<linearGradient id="SVGID_1_" gradientUnits="userSpaceOnUse" x1="75" y1="150" x2="75" y2="2.111847e-009">
		<stop  offset="0" style="stop-color:#272E3B"/>
		<stop  offset="1" style="stop-color:#38383D"/>
	</linearGradient>
	<rect x="0" y="0" class="st0" width="150" height="150"/>
</g>
<g class="st1">
	<path class="st2" d="M126,72.8L80.3,27.1c-2.6-2.6-6.9-2.6-9.5,0l-9.5,9.5l12,12c2.8-0.9,6-0.3,8.2,1.9c2.2,2.2,2.9,5.5,1.9,8.3
		l11.6,11.6c2.8-1,6-0.3,8.3,1.9c3.1,3.1,3.1,8.2,0,11.3c-3.1,3.1-8.2,3.1-11.3,0c-2.4-2.4-2.9-5.8-1.7-8.7L79.5,64.1l0,28.5
		c0.8,0.4,1.5,0.9,2.1,1.5c3.1,3.1,3.1,8.2,0,11.3c-3.1,3.1-8.2,3.1-11.3,0c-3.1-3.1-3.1-8.2,0-11.3c0.8-0.8,1.7-1.4,2.6-1.8V63.6
		c-1-0.4-1.9-1-2.6-1.8c-2.4-2.4-2.9-5.9-1.7-8.8L56.6,41.2L25.3,72.6c-2.6,2.6-2.6,6.9,0,9.5L71,127.8c2.6,2.6,6.9,2.6,9.5,0
		L126,82.3C128.7,79.7,128.7,75.4,126,72.8z"/>
</g>
<g>
	<path class="st3" d="M126,65.9L80.3,20.2c-2.6-2.6-6.9-2.6-9.5,0l-9.5,9.5l12,12c2.8-0.9,6-0.3,8.2,1.9c2.2,2.2,2.9,5.5,1.9,8.3
		l11.6,11.6c2.8-1,6-0.3,8.3,1.9c3.1,3.1,3.1,8.2,0,11.3c-3.1,3.1-8.2,3.1-11.3,0c-2.4-2.4-2.9-5.8-1.7-8.7L79.5,57.2l0,28.5
		c0.8,0.4,1.5,0.9,2.1,1.5c3.1,3.1,3.1,8.2,0,11.3c-3.1,3.1-8.2,3.1-11.3,0c-3.1-3.1-3.1-8.2,0-11.3c0.8-0.8,1.7-1.4,2.6-1.8V56.7
		c-1-0.4-1.9-1-2.6-1.8c-2.4-2.4-2.9-5.9-1.7-8.8L56.6,34.4L25.3,65.7c-2.6,2.6-2.6,6.9,0,9.5L71,120.9c2.6,2.6,6.9,2.6,9.5,0
		L126,75.4C128.7,72.8,128.7,68.5,126,65.9z"/>
</g>
</svg>
