<?xml version="1.0" encoding="utf-8"?>
<!-- Generator: Adobe Illustrator 19.1.0, SVG Export Plug-In . SVG Version: 6.00 Build 0)  -->
<!DOCTYPE svg PUBLIC "-//W3C//DTD SVG 1.1//EN" "http://www.w3.org/Graphics/SVG/1.1/DTD/svg11.dtd">
<svg version="1.1" id="Layer_1" xmlns="http://www.w3.org/2000/svg" xmlns:xlink="http://www.w3.org/1999/xlink" x="0px" y="0px"
	 viewBox="0 0 128 128" style="enable-background:new 0 0 128 128;" xml:space="preserve">
<style type="text/css">
	.st0{opacity:0.6;fill:#D1D1D1;}
	.st1{clip-path:url(#SVGID_2_);}
	.st2{fill:url(#SVGID_3_);}
	.st3{opacity:0.2;}
	.st4{fill:#0E1519;}
	.st5{fill:#558ABF;}
</style>
<path class="st0" d="M120.7,128.2h-110c-4,0-7.3-3.2-7.3-7.3v-110c0-4,3.2-7.3,7.3-7.3h110c4,0,7.3,3.2,7.3,7.3v110
	C128,124.9,124.8,128.2,120.7,128.2z"/>
<g>
	<defs>
		<path id="SVGID_1_" d="M118.5,124.7H6.2c-3.4,0-6.1-2.7-6.1-6.1V6.3c0-3.4,2.7-6.1,6.1-6.1h112.3c3.4,0,6.1,2.7,6.1,6.1v112.3
			C124.6,122,121.9,124.7,118.5,124.7z"/>
	</defs>
	<clipPath id="SVGID_2_">
		<use xlink:href="#SVGID_1_"  style="overflow:visible;"/>
	</clipPath>
	<g class="st1">
		<linearGradient id="SVGID_3_" gradientUnits="userSpaceOnUse" x1="62.4627" y1="126.1594" x2="62.4627" y2="-1.8261">
			<stop  offset="0" style="stop-color:#272E3B"/>
			<stop  offset="1" style="stop-color:#38383D"/>
		</linearGradient>
		<rect x="-2.5" y="-1.8" class="st2" width="129.9" height="128"/>
	</g>
</g>
<g class="st3">
	<path class="st4" d="M104.9,60.6l-38-38c-2.2-2.2-5.7-2.2-7.9,0L51,30.5l10,10c2.3-0.8,5-0.3,6.9,1.6c1.9,1.9,2.4,4.6,1.6,6.9
		l9.7,9.7c2.3-0.8,5-0.3,6.9,1.6c2.6,2.6,2.6,6.8,0,9.4c-2.6,2.6-6.8,2.6-9.4,0c-2-2-2.4-4.8-1.5-7.3l-9-9l0,23.7
		c0.6,0.3,1.2,0.7,1.8,1.3c2.6,2.6,2.6,6.8,0,9.4c-2.6,2.6-6.8,2.6-9.4,0c-2.6-2.6-2.6-6.8,0-9.4c0.6-0.6,1.4-1.1,2.2-1.5V53
		c-0.8-0.3-1.5-0.8-2.2-1.5c-2-2-2.4-4.9-1.4-7.3l-9.9-9.9L21.1,60.4c-2.2,2.2-2.2,5.7,0,7.9l38,38c2.2,2.2,5.7,2.2,7.9,0l37.8-37.8
		C107,66.3,107,62.8,104.9,60.6z"/>
</g>
<g>
	<path class="st5" d="M104.9,54.9l-38-38c-2.2-2.2-5.7-2.2-7.9,0L51,24.7l10,10c2.3-0.8,5-0.3,6.9,1.6c1.9,1.9,2.4,4.6,1.6,6.9
		l9.7,9.7c2.3-0.8,5-0.3,6.9,1.6c2.6,2.6,2.6,6.8,0,9.4c-2.6,2.6-6.8,2.6-9.4,0c-2-2-2.4-4.8-1.5-7.3l-9-9l0,23.7
		c0.6,0.3,1.2,0.7,1.8,1.3c2.6,2.6,2.6,6.8,0,9.4c-2.6,2.6-6.8,2.6-9.4,0c-2.6-2.6-2.6-6.8,0-9.4c0.6-0.6,1.4-1.1,2.2-1.5V47.2
		c-0.8-0.3-1.5-0.8-2.2-1.5c-2-2-2.4-4.9-1.4-7.3l-9.9-9.9L21.1,54.7c-2.2,2.2-2.2,5.7,0,7.9l38,38c2.2,2.2,5.7,2.2,7.9,0l37.8-37.8
		C107,60.6,107,57,104.9,54.9z"/>
</g>
</svg>
